####
#
# OBJ File Generated by Meshlab
#
####
# Object triangular wedge.obj
#
# Vertices: 8
# Faces: 12
#
####
vn 1.530048 -1.342523 -1.215331
v 0.027453 -0.037621 -0.058314
vn -1.570796 -1.570797 -1.570796
v -0.013906 -0.037621 -0.058314
vn 1.530047 1.342523 -1.215331
v 0.027453 0.037621 -0.058314
vn -1.570796 1.570797 -1.570796
v -0.013906 0.037621 -0.058314
vn 1.530048 1.799070 1.926262
v -0.009874 0.037621 0.102358
vn -1.570796 1.570796 1.570796
v -0.013906 0.037621 0.102358
vn -1.570796 -1.570796 1.570796
v -0.013906 -0.037621 0.102358
vn 1.530047 -1.799070 1.926261
v -0.009874 -0.037621 0.102358
# 8 vertices, 0 vertices normals

f 1//1 2//2 3//3
f 2//2 4//4 3//3
f 3//3 4//4 5//5
f 4//4 6//6 5//5
f 7//7 2//2 8//8
f 2//2 1//1 8//8
f 5//5 6//6 8//8
f 6//6 7//7 8//8
f 1//1 3//3 8//8
f 3//3 5//5 8//8
f 4//4 2//2 6//6
f 2//2 7//7 6//6
# 12 faces, 0 coords texture

# End of File
