mtllib Part Studio 1.mtl
g Part 1
usemtl 0.615686_0.811765_0.929412_0.000000_0.000000
o mesh0
v 0.0254 8.67362e-19 -4.77049e-18 
v 0.0254 0.00479443 -1.04083e-17 
v 0.0254 0.0157756 0.00845364 
vn 1 0 0 
vn 1 0 0 
vn 1 0 0 
f 1//1 2//2 3//3 
o mesh1
v 0.0254 0.0157756 0.00845364 
v -0.0254 0.0157756 0.00845364 
v -0.0254 8.67362e-19 -4.77049e-18 
v 0.0254 8.67362e-19 -4.77049e-18 
vn 0 -0.472327 0.881423 
vn 0 -0.472327 0.881423 
vn 0 -0.472327 0.881423 
vn 0 -0.472327 0.881423 
f 4//4 5//5 6//6 
f 6//6 7//7 4//4 
o mesh2
v 0.0254 8.67362e-19 -4.77049e-18 
v -0.0254 8.67362e-19 -4.77049e-18 
v -0.0254 0.00479443 -1.04083e-17 
v 0.0254 0.00479443 -1.04083e-17 
vn -0 -2.77556e-17 -1 
vn -0 -2.77556e-17 -1 
vn -0 -2.77556e-17 -1 
vn -0 -2.77556e-17 -1 
f 8//8 9//9 10//10 
f 10//10 11//11 8//8 
o mesh3
v 0.0254 0.00479443 -1.04083e-17 
v -0.0254 0.00479443 -1.04083e-17 
v -0.0254 0.0157756 0.00845364 
v 0.0254 0.0157756 0.00845364 
vn -0 0.61001 -0.792394 
vn -0 0.61001 -0.792394 
vn -0 0.61001 -0.792394 
vn -0 0.61001 -0.792394 
f 12//12 13//13 14//14 
f 14//14 15//15 12//12 
o mesh4
v -0.0254 0.0157756 0.00845364 
v -0.0254 0.00479443 -1.04083e-17 
v -0.0254 8.67362e-19 -4.77049e-18 
vn -1 -0 -0 
vn -1 -0 -0 
vn -1 -0 -0 
f 16//16 17//17 18//18 
